<svg height="80" viewBox="0 0 80 80" width="80" xmlns="http://www.w3.org/2000/svg">
 <g transform="translate(-13.094853 -538.37894)">
  <path d="m36 9.2304688a30.769232 30.769232 0 0 0 -28.7617188 19.8730472c-2.2459864.687327-4.225881 1.765185-5.53125 3.808593l-.011719.01758-.00977.01758s-.93626265 1.576886-1.11914065 3.691406c-.182877 2.11452.33453412 5.019929 2.42382815 7.912109.86012 1.190653 1.9725037 2.384756 3.3671875 3.570313a30.769232 30.769232 0 0 0 29.6425828 22.648434 30.769232 30.769232 0 0 0 21.242188-8.558593c.01118.000071.02202-.000068.0332 0 4.479739.0271 9.067313-.238501 12.988281-1.28125 1.960484-.521371 3.775369-1.231439 5.339844-2.361329 1.497966-1.08186 2.733467-2.690739 3.240234-4.630859.27306-.62845 1.101766-2.724137.302734-5.529297-.929059-3.26164-4.040784-6.68645-10.507812-9-.588012-.210448-1.234759-.422756-1.929688-.632812a30.769232 30.769232 0 0 0 -30.708981-29.5449222zm30.353516 35.7421872c.08256.02867.184102.05746.263672.08594 5.364344 1.91907 6.449564 3.903167 6.759765 4.992187.310202 1.08902-.01367 1.611328-.01367 1.611328l-.183593.353516-.08594.386719c-.09905.44686-.307316.797691-1.003906 1.300781s-1.870065 1.029064-3.369141 1.427734c-1.807507.48069-4.080017.764638-6.501953.923829a30.769232 30.769232 0 0 0 4.134766-11.082032z" fill="#048" transform="translate(13.094853 538.37894)"/>
  <path d="m54.413958 571.67925s.01245-.44659-1.413488-.70237c-7.439568-1.3318-31.679574-4.31695-35.669332 1.92856 0 0-8.8365901 14.26856 35.995316 23.32689 0 0 33.569565 5.22102 35.79117-4.80218 0 0 3.437165-6.58501-8.394207-10.81763-7.090307-2.53761-23.160131-5.76339-44.182362-4.21785 0 0 21.298429 3.0071 25.794604 7.93534 0 0 6.749086 5.43845-4.93696 5.84738 0 0-24.534064.87345-35.170743-8.85202 0 0-19.0308683-13.55909 32.186002-9.64612z" fill="#fd4"/>
 </g>
</svg>
